<svg xmlns="http://www.w3.org/2000/svg" viewBox="0 0 1440 320"><path fill="#3737FF" fill-opacity="1" d="M0,128L40,117.3C80,107,160,85,240,64C320,43,400,21,480,16C560,11,640,21,720,69.3C800,117,880,203,960,213.3C1040,224,1120,160,1200,144C1280,128,1360,160,1400,176L1440,192L1440,320L1400,320C1360,320,1280,320,1200,320C1120,320,1040,320,960,320C880,320,800,320,720,320C640,320,560,320,480,320C400,320,320,320,240,320C160,320,80,320,40,320L0,320Z" data-darkreader-inline-fill="" style="--darkreader-inline-fill:#007acc;"></path></svg>